<?xml version="1.0" encoding="iso-8859-1"?><svg viewBox="0 0 64 64" xmlns="http://www.w3.org/2000/svg" xmlns:xlink="http://www.w3.org/1999/xlink"><style>:root>svg{display:none}:root>svg:target{display:block}</style><svg viewBox="0 0 64 64" id="bicycle" xmlns="http://www.w3.org/2000/svg"><path fill="red" d="M14 53c7.382 0 13.433-5.747 13.949-13H32a1 1 0 00.789-.386l3.957-5.088A13.926 13.926 0 0036 39c0 7.72 6.28 14 14 14s14-6.28 14-14-6.28-14-14-14c-.737 0-1.455.074-2.162.185L45.257 14H54c1.103 0 2 .897 2 2s-.897 2-2 2h-2v2h2c2.206 0 4-1.794 4-4s-1.794-4-4-4H44a.998.998 0 00-.974 1.225L44.589 20H26.155l-.727-2H30c1.654 0 3-1.346 3-3s-1.346-3-3-3H20c-2.206 0-4 1.794-4 4s1.794 4 4 4c.266 0 .52-.105.707-.293L22.414 18h.886l.917 2.521-.07-.043-3.725 6.095A13.906 13.906 0 0014 25C6.28 25 0 31.28 0 39s6.28 14 14 14zm8-37a.996.996 0 00-.707.293l-1.671 1.671A2.002 2.002 0 0118 16c0-1.103.897-2 2-2h10a1.001 1.001 0 010 2h-8zm28 11c6.617 0 12 5.383 12 12s-5.383 12-12 12-12-5.383-12-12c0-5.339 3.507-9.871 8.337-11.424l2.688 11.649 1.949-.45-2.686-11.638A11.933 11.933 0 0150 27zm-7.603.261l2.983-3.835.506 2.193a13.906 13.906 0 00-3.489 1.642zM43.956 22L32.321 36.958 26.882 22h17.074zm-18.901.828L30.573 38H27.95a13.98 13.98 0 00-5.824-10.379l2.929-4.793zM25.949 38H15.783l5.297-8.667c2.723 2 4.574 5.112 4.869 8.667zM14 27c1.934 0 3.756.471 5.375 1.286l-6.229 10.192A1 1 0 0014 40h11.949C25.438 46.149 20.28 51 14 51 7.383 51 2 45.617 2 39s5.383-12 12-12z"/><path d="M50 49c5.514 0 10-4.486 10-10h-2c0 4.411-3.589 8-8 8v2zM14 31v-2C8.486 29 4 33.486 4 39h2c0-4.411 3.589-8 8-8zM12.453 13.374l-1.447-1.38a29.026 29.026 0 00-1.397 1.577l1.543 1.271c.414-.503.852-.997 1.301-1.468zM15.357 10.737l-1.234-1.573c-.553.434-1.095.891-1.609 1.358l1.344 1.481c.48-.435.985-.861 1.499-1.266zM18.608 8.549l-.994-1.735c-.606.348-1.208.722-1.788 1.112l1.117 1.659c.54-.364 1.101-.712 1.665-1.036zM22.142 6.857l-.729-1.862c-.648.253-1.299.536-1.933.84l.863 1.804a27.018 27.018 0 011.799-.782zM9.96 16.401l-1.631-1.158a28.449 28.449 0 00-1.156 1.763l1.711 1.035c.339-.56.701-1.111 1.076-1.64zM6.408 23.369l-1.894-.639a28.928 28.928 0 00-.601 2.021l1.938.499c.162-.632.349-1.265.557-1.881zM7.93 19.755l-1.781-.908a29.49 29.49 0 00-.889 1.912l1.844.775c.25-.598.529-1.197.826-1.779zM49.403 8.8a30.035 30.035 0 00-1.729-1.203l-1.082 1.682c.545.351 1.087.729 1.61 1.121l1.201-1.6zM45.861 6.521a30.067 30.067 0 00-1.885-.94l-.828 1.821c.59.268 1.181.562 1.758.875l.955-1.756zM25.885 5.695l-.451-1.948c-.686.159-1.37.344-2.035.55l.594 1.91a26.711 26.711 0 011.892-.512zM42.025 4.781a28.902 28.902 0 00-2.003-.656l-.552 1.922a26.68 26.68 0 011.864.611l.691-1.877zM29.756 5.092l-.164-1.993c-.7.058-1.403.141-2.091.248l.307 1.977c.641-.1 1.296-.178 1.948-.232zM37.977 3.617A28.785 28.785 0 0035.9 3.26l-.266 1.982c.645.086 1.295.198 1.933.332l.41-1.957zM32 5c.564 0 1.124.018 1.68.051l.121-1.996A29.829 29.829 0 0032 3l-.305.001.02 2L32 5zM17.143 54.547l-1.102 1.669a29.4 29.4 0 001.799 1.097l.979-1.744a26.886 26.886 0 01-1.676-1.022zM22.367 57.231a26.472 26.472 0 01-1.805-.766l-.85 1.811c.631.296 1.284.573 1.941.824l.714-1.869zM49.607 55.044l-1.215-1.589a27.13 27.13 0 01-1.602 1.136l1.1 1.671a29.105 29.105 0 001.717-1.218zM38.231 60.329l-.428-1.954c-.636.139-1.285.257-1.93.35l.285 1.979c.694-.1 1.391-.225 2.073-.375zM46.088 57.354l-.973-1.747c-.569.317-1.157.617-1.747.891l.844 1.813a28.268 28.268 0 001.876-.957zM42.269 59.129l-.709-1.87c-.611.231-1.236.442-1.857.627l.568 1.917a29.138 29.138 0 001.998-.674zM30.002 58.927a26.899 26.899 0 01-1.95-.213l-.291 1.979c.691.102 1.396.179 2.095.23l.146-1.996zM33.925 58.933a27.63 27.63 0 01-1.963.067L32 61c.688 0 1.384-.024 2.065-.072l-.14-1.995zM26.121 58.359a26.993 26.993 0 01-1.898-.496l-.574 1.916c.669.201 1.355.38 2.039.532l.433-1.952z"/></svg></svg>